<svg width="65" height="66" viewBox="0 0 65 66" fill="none" xmlns="http://www.w3.org/2000/svg">
<path d="M0 33C0 15.0507 14.5507 0.5 32.5 0.5C50.4493 0.5 65 15.0507 65 33C65 50.9493 50.4493 65.5 32.5 65.5C14.5507 65.5 0 50.9493 0 33Z" fill="#10F48B"/>
<path d="M17.9795 23.6041C17.9795 21.2454 19.8916 19.3333 22.2503 19.3333H25.667C28.0257 19.3333 29.9378 21.2454 29.9378 23.6041V27.0208C29.9378 29.3795 28.0257 31.2916 25.667 31.2916H22.2503C19.8916 31.2916 17.9795 29.3795 17.9795 27.0208V23.6041Z" stroke="#0B1036" stroke-width="1.5"/>
<path d="M17.9795 40.6874C17.9795 38.3287 19.8916 36.4166 22.2503 36.4166H25.667C28.0257 36.4166 29.9378 38.3287 29.9378 40.6874V44.1041C29.9378 46.4628 28.0257 48.3749 25.667 48.3749H22.2503C19.8916 48.3749 17.9795 46.4628 17.9795 44.1041V40.6874Z" stroke="#0B1036" stroke-width="1.5"/>
<path d="M35.0628 23.6041C35.0628 21.2454 36.9749 19.3333 39.3337 19.3333H42.7503C45.109 19.3333 47.0212 21.2454 47.0212 23.6041V27.0208C47.0212 29.3795 45.109 31.2916 42.7503 31.2916H39.3337C36.9749 31.2916 35.0628 29.3795 35.0628 27.0208V23.6041Z" stroke="#0B1036" stroke-width="1.5"/>
<path d="M35.0628 40.6874C35.0628 38.3287 36.9749 36.4166 39.3337 36.4166H42.7503C45.109 36.4166 47.0212 38.3287 47.0212 40.6874V44.1041C47.0212 46.4628 45.109 48.3749 42.7503 48.3749H39.3337C36.9749 48.3749 35.0628 46.4628 35.0628 44.1041V40.6874Z" stroke="#0B1036" stroke-width="1.5"/>
</svg>
