<svg width="24" height="24" viewBox="0 0 24 24" fill="none" xmlns="http://www.w3.org/2000/svg">
<path fill-rule="evenodd" clip-rule="evenodd" d="M17.9951 14.9565H11.0556V13.9945H13.0165C13.5702 13.9945 14.0187 13.547 14.0187 12.9945V9.0325H17.9951V14.9565ZM5.07524 11.995H12.0147V6.071H5.07524V11.995ZM14.0187 7.0325V5.071C14.0187 4.5185 13.5702 4.071 13.0165 4.071H5.00408L4.9996 2H4.00184H2.99512L2.99512 22H4.00184H4.9996L5.00408 13.9945H9.05112V15.9565C9.05112 16.5085 9.50013 16.9565 10.0534 16.9565H18.9974C19.5506 16.9565 19.9996 16.5085 19.9996 15.9565V8.0325C19.9996 7.4805 19.5506 7.0325 18.9974 7.0325H14.0187Z" fill="white"/>
</svg>
