<svg width="198" height="63" viewBox="0 0 198 63" fill="none" xmlns="http://www.w3.org/2000/svg">
<path d="M32.8232 28.3964V30.0805H34.5284L44.1433 20.5839V18.8998H42.4403L32.8232 28.3964Z" fill="#00F485"/>
<path d="M29.949 34.6036V32.9195H28.2439L18.6289 42.4182V44.1002H20.3341L29.949 34.6036Z" fill="#00F485"/>
<path d="M39.5641 18.8998H36.1559L31.3863 23.6107L26.6166 18.8998H23.2085L31.3863 26.9769L39.5641 18.8998Z" fill="#00F485"/>
<path d="M39.374 31.5L44.1436 26.7891V23.4229L35.9658 31.5L44.1436 39.5771V36.2109L39.374 31.5Z" fill="#00F485"/>
<path d="M34.5284 32.9195H32.8232V34.6036L42.4382 44.1002H44.1433V42.4182L34.5284 32.9195Z" fill="#00F485"/>
<path d="M29.949 30.0805V28.3964L20.3341 18.8998H18.6289V20.5839L28.2439 30.0805H29.949Z" fill="#00F485"/>
<path d="M18.6289 36.2109V39.5771L26.8067 31.5L18.6289 23.4229V26.7891L23.3986 31.5L18.6289 36.2109Z" fill="#00F485"/>
<path d="M23.2085 44.1002H26.6166L31.3863 39.3893L36.1559 44.1002H39.5641L31.3863 36.0231L23.2085 44.1002Z" fill="#00F485"/>
<path d="M44.4051 10.5003H18.3676C13.8153 10.5003 10.125 14.1453 10.125 18.6415V44.3585C10.125 48.8547 13.8153 52.4996 18.3676 52.4996H44.4051C48.9574 52.4996 52.6477 48.8547 52.6477 44.3585V18.6415C52.6477 14.1453 48.9574 10.5003 44.4051 10.5003Z" fill="#161B85"/>
<path d="M32.8232 28.3964V30.0805H34.5284L44.1433 20.5839V18.8998H42.4403L32.8232 28.3964Z" fill="#00F485"/>
<path d="M29.949 34.6036V32.9195H28.2439L18.6289 42.4182V44.1002H20.3341L29.949 34.6036Z" fill="#00F485"/>
<path d="M39.5641 18.8998H36.1559L31.3863 23.6107L26.6166 18.8998H23.2085L31.3863 26.9769L39.5641 18.8998Z" fill="#00F485"/>
<path d="M39.374 31.5L44.1436 26.7891V23.4229L35.9658 31.5L44.1436 39.5771V36.2109L39.374 31.5Z" fill="#00F485"/>
<path d="M34.5284 32.9195H32.8232V34.6036L42.4382 44.1002H44.1433V42.4182L34.5284 32.9195Z" fill="#00F485"/>
<path d="M29.949 30.0805V28.3964L20.3341 18.8998H18.6289V20.5839L28.2439 30.0805H29.949Z" fill="#00F485"/>
<path d="M18.6289 36.2109V39.5771L26.8067 31.5L18.6289 23.4229V26.7891L23.3986 31.5L18.6289 36.2109Z" fill="#00F485"/>
<path d="M23.2085 44.1002H26.6166L31.3863 39.3893L36.1559 44.1002H39.5641L31.3863 36.0231L23.2085 44.1002Z" fill="#00F485"/>
<path d="M76.0552 25.44H64.5687C62.7404 25.44 61.2578 26.9043 61.2578 28.7102V30.247C61.2578 30.3004 61.3032 30.3452 61.3572 30.3452H62.8138C62.8679 30.3452 62.9132 30.3004 62.9132 30.247V28.7102C62.9132 27.8072 63.6545 27.0751 64.5687 27.0751H76.0552C76.1092 27.0751 76.1546 27.0303 76.1546 26.9769V25.5382C76.1546 25.4849 76.1092 25.44 76.0552 25.44Z" fill="#F4F4FC"/>
<path d="M76.0552 18.8998H64.5687C62.7404 18.8998 61.2578 20.3641 61.2578 22.1699V22.8892C61.2578 22.9426 61.3032 22.9874 61.3572 22.9874H62.8138C62.8679 22.9874 62.9132 22.9426 62.9132 22.8892V22.1699C62.9132 21.267 63.6545 20.5348 64.5687 20.5348H76.0552C76.1092 20.5348 76.1546 20.49 76.1546 20.4367V18.998C76.1546 18.9446 76.1092 18.8998 76.0552 18.8998Z" fill="#F4F4FC"/>
<path d="M97.3577 18.8998H112.056C112.11 18.8998 112.155 18.9446 112.155 18.998V20.4367C112.155 20.49 112.11 20.5348 112.056 20.5348H97.3577C97.3037 20.5348 97.2583 20.49 97.2583 20.4367V18.998C97.2583 18.9446 97.3037 18.8998 97.3577 18.8998Z" fill="#F4F4FC"/>
<path d="M97.3577 23.805H112.056C112.11 23.805 112.155 23.8498 112.155 23.9032V25.3418C112.155 25.3952 112.11 25.44 112.056 25.44H97.3577C97.3037 25.44 97.2583 25.3952 97.2583 25.3418V23.9032C97.2583 23.8498 97.3037 23.805 97.3577 23.805Z" fill="#F4F4FC"/>
<path d="M97.3577 28.708H112.056C112.11 28.708 112.155 28.7528 112.155 28.8062V30.2449C112.155 30.2982 112.11 30.3431 112.056 30.3431H97.3577C97.3037 30.3431 97.2583 30.2982 97.2583 30.2449V28.8062C97.2583 28.7528 97.3037 28.708 97.3577 28.708Z" fill="#F4F4FC"/>
<path d="M115.358 18.8998H130.056C130.11 18.8998 130.155 18.9446 130.155 18.998V20.4367C130.155 20.49 130.11 20.5348 130.056 20.5348H115.358C115.304 20.5348 115.258 20.49 115.258 20.4367V18.998C115.258 18.9446 115.304 18.8998 115.358 18.8998Z" fill="#F4F4FC"/>
<path d="M115.358 23.805H130.056C130.11 23.805 130.155 23.8498 130.155 23.9032V25.3418C130.155 25.3952 130.11 25.44 130.056 25.44H115.358C115.304 25.44 115.258 25.3952 115.258 25.3418V23.9032C115.258 23.8498 115.304 23.805 115.358 23.805Z" fill="#F4F4FC"/>
<path d="M115.358 28.708H130.056C130.11 28.708 130.155 28.7528 130.155 28.8062V30.2449C130.155 30.2982 130.11 30.3431 130.056 30.3431H115.358C115.304 30.3431 115.258 30.2982 115.258 30.2449V28.8062C115.258 28.7528 115.304 28.708 115.358 28.708Z" fill="#F4F4FC"/>
<path d="M142.491 18.8998H133.375C133.321 18.8998 133.276 18.9446 133.276 18.998V20.4367C133.276 20.49 133.321 20.5348 133.375 20.5348H142.504C144.825 20.5348 146.768 22.4111 146.723 24.7015C146.679 26.9214 144.845 28.708 142.586 28.708H133.375C133.321 28.708 133.276 28.7528 133.276 28.8062V30.2449C133.276 30.2983 133.321 30.3431 133.375 30.3431H142.586C145.819 30.3431 148.432 27.7283 148.378 24.5243C148.324 21.3865 145.668 18.8998 142.491 18.8998Z" fill="#F4F4FC"/>
<path d="M162.843 18.8998H156.299C153.1 18.8998 150.507 21.4612 150.507 24.6204C150.507 27.7795 153.1 30.3409 156.299 30.3409H162.843C166.041 30.3409 168.635 27.7795 168.635 24.6204C168.635 21.4612 166.041 18.8998 162.843 18.8998ZM162.843 28.708H156.299C154.014 28.708 152.16 26.8787 152.16 24.6204C152.16 22.362 154.012 20.5327 156.299 20.5327H162.843C165.127 20.5327 166.981 22.362 166.981 24.6204C166.981 26.8787 165.129 28.708 162.843 28.708Z" fill="#F4F4FC"/>
<path d="M94.3599 23.0664C94.4053 20.776 92.4603 18.8998 90.1414 18.8998H79.3572C79.3032 18.8998 79.2578 18.9446 79.2578 18.998V20.4367C79.2578 20.49 79.3032 20.5348 79.3572 20.5348H90.163C91.5094 20.5348 92.6548 21.568 92.7045 22.8978C92.7542 24.2938 91.6239 25.44 90.2235 25.44H79.3572C79.3032 25.44 79.2578 25.4849 79.2578 25.5382V30.247C79.2578 30.3004 79.3032 30.3452 79.3572 30.3452H80.8138C80.8679 30.3452 80.9133 30.3004 80.9133 30.247V27.0751H90.2235C90.3834 27.0751 90.539 27.0644 90.6946 27.0473L92.3717 30.2897C92.3889 30.3217 92.4235 30.3431 92.4603 30.3431H94.0963C94.1697 30.3431 94.2194 30.2662 94.1849 30.2001L92.2874 26.5286C93.5063 25.8349 94.334 24.5478 94.3621 23.0664H94.3599Z" fill="#F4F4FC"/>
<path d="M187.778 18.8998H185.312C184.272 18.8998 183.309 19.4356 182.768 20.3128L179.609 25.44H179.6L176.44 20.3128C175.9 19.4356 174.936 18.8998 173.897 18.8998H171.431C171.377 18.8998 171.332 18.9446 171.332 18.998V30.2449C171.332 30.2983 171.377 30.3431 171.431 30.3431H172.888C172.942 30.3431 172.987 30.2983 172.987 30.2449V20.5348H173.899C174.361 20.5348 174.789 20.7718 175.029 21.1624L178.643 27.026C178.66 27.0559 178.692 27.073 178.727 27.073H180.486C180.521 27.073 180.553 27.0559 180.57 27.026L184.186 21.1624C184.426 20.7718 184.856 20.5348 185.316 20.5348H186.228V30.2449C186.228 30.2983 186.274 30.3431 186.328 30.3431H187.784C187.838 30.3431 187.884 30.2983 187.884 30.2449V18.998C187.884 18.9446 187.838 18.8998 187.784 18.8998H187.778Z" fill="#F4F4FC"/>
<path d="M146.9 37.2099H141.551C141.514 37.2099 141.484 37.2398 141.484 37.2761V38.4543C141.484 38.4906 141.514 38.5205 141.551 38.5205H146.909C147.499 38.5205 148.076 38.7596 148.491 39.1801C148.985 39.6796 149.202 40.3626 149.065 41.0542C148.867 42.0639 147.942 42.7725 146.9 42.7725H141.549C141.512 42.7725 141.482 42.8024 141.482 42.8387V44.017C141.482 44.0533 141.512 44.0831 141.549 44.0831H146.87C147.847 44.0831 148.8 43.7139 149.472 43.0137C150.103 42.3584 150.442 41.5003 150.427 40.591C150.395 38.7297 148.813 37.2163 146.898 37.2163L146.9 37.2099Z" fill="#00CE80"/>
<path d="M88.2483 37.2099H84.5398C82.6228 37.2099 81.0625 38.751 81.0625 40.6422C81.0625 42.5335 82.6228 44.0746 84.5398 44.0746H88.2483C90.1653 44.0746 91.7256 42.5335 91.7256 40.6422C91.7256 38.751 90.1653 37.2099 88.2483 37.2099ZM88.2483 42.7683H84.5398C83.3533 42.7683 82.3873 41.8141 82.3873 40.6422C82.3873 39.4704 83.3533 38.5162 84.5398 38.5162H88.2483C89.4348 38.5162 90.4008 39.4704 90.4008 40.6422C90.4008 41.8141 89.4348 42.7683 88.2483 42.7683Z" fill="#00CE80"/>
<path d="M109.968 41.7928C110.644 41.3381 111.068 40.5782 111.085 39.765C111.098 39.099 110.841 38.4671 110.359 37.9826C109.871 37.4917 109.194 37.2099 108.501 37.2099H102.205C102.168 37.2099 102.138 37.2398 102.138 37.2761V38.4543C102.138 38.4906 102.168 38.5205 102.205 38.5205H108.514C109.177 38.5205 109.737 39.0392 109.761 39.6753C109.774 40.019 109.64 40.3434 109.389 40.5846C109.155 40.8066 108.833 40.9176 108.509 40.9176H102.207C102.171 40.9176 102.14 40.9475 102.14 40.9838V44.0148C102.14 44.0511 102.171 44.081 102.207 44.081H103.4C103.437 44.081 103.467 44.0511 103.467 44.0148V42.2282H108.55C108.602 42.2282 108.652 42.2282 108.704 42.2239L109.646 44.0468C109.657 44.0682 109.681 44.0831 109.704 44.0831H111.042C111.092 44.0831 111.124 44.0319 111.1 43.9871L109.968 41.7992V41.7928Z" fill="#00CE80"/>
<path d="M131.245 42.7683H124.552C124.141 42.7683 123.806 42.4395 123.806 42.0318V37.2739C123.806 37.2376 123.776 37.2078 123.739 37.2078H122.546C122.509 37.2078 122.479 37.2376 122.479 37.2739V42.0318C122.479 43.161 123.406 44.0746 124.547 44.0746H131.24C131.277 44.0746 131.307 44.0447 131.307 44.0084V42.8302C131.307 42.7939 131.277 42.764 131.24 42.764L131.245 42.7683Z" fill="#00CE80"/>
<path d="M70.9592 37.2099H69.7662C69.7295 37.2099 69.6993 37.2398 69.6993 37.276V42.7682H69.3772C69.1849 42.7682 69.0012 42.6679 68.9018 42.5035L66.799 39.0925C66.786 39.0733 66.7666 39.0605 66.7428 39.0605H65.5412C65.5174 39.0605 65.4958 39.0733 65.485 39.0925L63.3822 42.5035C63.2806 42.6679 63.1013 42.7682 62.9068 42.7682H62.5848V37.276C62.5848 37.2398 62.5545 37.2099 62.5178 37.2099H61.3248C61.2881 37.2099 61.2578 37.2398 61.2578 37.276V44.0127C61.2578 44.049 61.2881 44.0788 61.3248 44.0788H62.9068C63.5638 44.0788 64.1732 43.7416 64.5147 43.1866L66.142 40.544L67.7693 43.1866C68.1086 43.7373 68.7246 44.0788 69.3772 44.0788H70.9592C70.9959 44.0788 71.0262 44.049 71.0262 44.0127V37.276C71.0262 37.2398 70.9959 37.2099 70.9592 37.2099Z" fill="#00CE80"/>
</svg>
