<svg width="24" height="24" viewBox="0 0 24 24" fill="none" xmlns="http://www.w3.org/2000/svg">
<path d="M5.75 7.60547C5.75 5.61328 6.80469 3.77734 8.5625 2.76172C10.2812 1.74609 12.4297 1.74609 14.1875 2.76172C15.9062 3.77734 17 5.61328 17 7.60547C17 9.63672 15.9062 11.4727 14.1875 12.4883C12.4297 13.5039 10.2812 13.5039 8.5625 12.4883C6.80469 11.4727 5.75 9.63672 5.75 7.60547ZM10.4375 6.35547C10.4766 6.31641 10.5156 6.27734 10.6328 6.19922C10.8281 6.12109 11.1016 6.04297 11.3359 6.04297C11.6484 6.08203 12 6.12109 12.3906 6.23828C12.7031 6.31641 13.0547 6.08203 13.1328 5.76953C13.2109 5.41797 13.0156 5.10547 12.6641 4.98828C12.4688 4.94922 12.2344 4.91016 11.9609 4.87109V4.48047C11.9609 4.16797 11.6875 3.85547 11.3359 3.85547C11.0234 3.85547 10.7109 4.16797 10.7109 4.48047V4.87109C10.4766 4.91016 10.2422 4.98828 10.0078 5.10547C9.57812 5.37891 9.10938 5.84766 9.1875 6.55078C9.22656 7.17578 9.61719 7.56641 10.0078 7.76172C10.3594 7.95703 10.7891 8.07422 11.1406 8.15234L11.2188 8.19141C11.6094 8.30859 11.9219 8.38672 12.1172 8.50391C12.2734 8.62109 12.3125 8.66016 12.3125 8.73828C12.3125 8.81641 12.2734 8.89453 12.2734 8.89453C12.2344 8.93359 12.1953 9.01172 12.1172 9.05078C11.9219 9.12891 11.6484 9.16797 11.375 9.16797C11.0234 9.16797 10.6719 9.05078 10.2031 8.89453C10.125 8.89453 10.0469 8.85547 9.96875 8.85547C9.65625 8.73828 9.30469 8.93359 9.1875 9.24609C9.10938 9.59766 9.26562 9.94922 9.61719 10.0273C9.65625 10.0664 9.73438 10.0664 9.8125 10.1055C10.0859 10.1836 10.3984 10.3008 10.75 10.3398V10.8086C10.75 11.1602 11.0234 11.4336 11.375 11.4336C11.6875 11.4336 12 11.1602 12 10.8086V10.3789C12.2344 10.3398 12.4688 10.2617 12.7031 10.1445C13.1719 9.87109 13.5625 9.40234 13.5625 8.69922C13.5234 8.07422 13.1328 7.68359 12.7422 7.44922C12.3906 7.21484 11.9219 7.09766 11.5703 6.98047H11.5312C11.1406 6.86328 10.8281 6.78516 10.5938 6.66797C10.4375 6.55078 10.4375 6.51172 10.4375 6.51172V6.47266C10.4375 6.43359 10.4375 6.39453 10.4375 6.35547ZM8.05469 15.7305C7.74219 15.7305 7.42969 15.8477 7.19531 16.0039L4.07031 18.0742C3.91406 18.1914 3.71875 18.2305 3.5625 18.2305H1.6875C1.14062 18.2305 0.75 17.8398 0.75 17.293C0.75 16.7852 1.14062 16.3555 1.6875 16.3555H3.25L6.14062 14.4414C6.72656 14.0898 7.39062 13.8555 8.05469 13.8555H14.1875C15.5547 13.8555 16.6875 14.9883 16.6875 16.3555C16.6875 16.3945 16.6875 16.4336 16.6875 16.4336L19.1875 14.8711C19.6172 14.6367 20.0859 14.4805 20.5938 14.4805H20.8672C22.1953 14.4805 23.25 15.5352 23.25 16.8633C23.25 17.6445 22.8203 18.3867 22.1562 18.8164L18.4453 21.2383C17.6641 21.7461 16.7656 22.0195 15.8672 22.0195H1.6875C1.14062 22.0195 0.75 21.5898 0.75 21.082C0.75 20.5352 1.14062 20.1445 1.6875 20.1445H15.8672C16.4141 20.1445 16.9609 19.9883 17.3906 19.6758L21.1406 17.2539C21.2578 17.1758 21.375 17.0195 21.375 16.8633C21.375 16.5898 21.1406 16.3555 20.8672 16.3555H20.5938C20.4375 16.3555 20.3203 16.3945 20.2031 16.4727L16.5312 18.7383C16.375 18.8164 16.2188 18.8555 16.0234 18.8555H10.75C10.2031 18.8555 9.8125 18.4648 9.8125 17.918C9.8125 17.4102 10.2031 16.9805 10.75 16.9805H14.1875C14.5 16.9805 14.8125 16.707 14.8125 16.3555C14.8125 16.043 14.5 15.7305 14.1875 15.7305H8.05469Z" fill="white"/>
</svg>
