<svg width="24" height="24" viewBox="0 0 24 24" fill="none" xmlns="http://www.w3.org/2000/svg">
<path fill-rule="evenodd" clip-rule="evenodd" d="M17.9956 14.9565H11.0561V13.9945H13.017C13.5707 13.9945 14.0192 13.547 14.0192 12.9945V9.0325H17.9956V14.9565ZM5.07573 11.995H12.0152V6.071H5.07573V11.995ZM14.0192 7.0325V5.071C14.0192 4.5185 13.5707 4.071 13.017 4.071H5.00457L5.00009 2H4.00233H2.99561L2.99561 22H4.00233H5.00009L5.00457 13.9945H9.05161V15.9565C9.05161 16.5085 9.50062 16.9565 10.0539 16.9565H18.9978C19.5511 16.9565 20.0001 16.5085 20.0001 15.9565V8.0325C20.0001 7.4805 19.5511 7.0325 18.9978 7.0325H14.0192Z" fill="white"/>
</svg>
