<svg width="24" height="24" viewBox="0 0 24 24" fill="none" xmlns="http://www.w3.org/2000/svg">
<path d="M17.9257 22L21.75 18.1757C21.8625 18.0632 21.9257 17.9106 21.9257 17.7515V12.5C21.9257 11.6716 21.2541 11 20.4257 11C19.5973 11 18.9257 11.6716 18.9257 12.5V17M18 17.9997L18.8581 17.1416C18.949 17.0507 19 16.9275 19 16.7991C19 16.6156 18.8963 16.4479 18.7322 16.3658L18.2893 16.1444C17.5194 15.7594 16.5894 15.9103 15.9807 16.519L15.0858 17.4139C14.7107 17.789 14.5 18.2977 14.5 18.8281V21.9997M6 22L2.17574 18.1757C2.06321 18.0632 2 17.9106 2 17.7515V12.5C2 11.6716 2.67157 11 3.5 11C4.32843 11 5 11.6716 5 12.5V17M6 17.9997L5.14187 17.1416C5.05103 17.0507 5 16.9275 5 16.7991C5 16.6156 5.10366 16.4479 5.26776 16.3658L5.71067 16.1444C6.48064 15.7594 7.41059 15.9103 8.01931 16.519L8.91421 17.4139C9.28929 17.789 9.5 18.2977 9.5 18.8281V21.9997M8.5 9V7L10.1628 9V7M11.6496 9V7H13.3366M11.6496 8.00146H13.3366M14.8131 7H16.5M15.6583 9V7M18 7.75C18 10.9256 15.4256 13.5 12.25 13.5C9.07436 13.5 6.5 10.9256 6.5 7.75C6.5 4.57436 9.07436 2 12.25 2C15.4256 2 18 4.57436 18 7.75Z" stroke="white" stroke-linecap="round" stroke-linejoin="round"/>
</svg>
