<svg width="25" height="24" viewBox="0 0 25 24" fill="none" xmlns="http://www.w3.org/2000/svg">
<path d="M9.25 16.5C9.25 16.9142 9.58579 17.25 10 17.25C10.4142 17.25 10.75 16.9142 10.75 16.5H9.25ZM10.75 15.5V14.75H9.25V15.5H10.75ZM9.25 12.5979C9.25 13.0121 9.58579 13.3479 10 13.3479C10.4142 13.3479 10.75 13.0121 10.75 12.5979H9.25ZM10.75 11.5979C10.75 11.1837 10.4142 10.8479 10 10.8479C9.58579 10.8479 9.25 11.1837 9.25 11.5979H10.75ZM9.25 8.5C9.25 8.91421 9.58579 9.25 10 9.25C10.4142 9.25 10.75 8.91421 10.75 8.5L9.25 8.5ZM10.75 7.5L10.75 6.75L9.25 6.75L9.25 7.5L10.75 7.5ZM22.5 13.8818H23.25C23.25 13.4676 22.9142 13.1318 22.5 13.1318V13.8818ZM22.5 10.1191V10.8691C22.9142 10.8691 23.25 10.5333 23.25 10.1191H22.5ZM2.5 10.193H1.75C1.75 10.6072 2.08579 10.943 2.5 10.943V10.193ZM2.5 13.8818V13.1318C2.08579 13.1318 1.75 13.4676 1.75 13.8818H2.5ZM10 16.5H10.75V15.5H10H9.25V16.5H10ZM10 12.5979H10.75V11.5979H10H9.25V12.5979H10ZM10 8.5L10.75 8.5V7.5L10 7.5L9.25 7.5L9.25 8.5L10 8.5ZM22.5 16H23.25V13.8818H22.5H21.75V16H22.5ZM22.5 13.8818V13.1318C21.602 13.1318 21.0733 12.5295 21.0733 12.0009H20.3233H19.5733C19.5733 13.556 20.9867 14.6318 22.5 14.6318V13.8818ZM20.3233 12.0009H21.0733C21.0733 11.4719 21.6025 10.8691 22.5 10.8691V10.1191V9.36909C20.9862 9.36909 19.5733 10.4462 19.5733 12.0009H20.3233ZM22.5 10.1191H23.25V8H22.5H21.75V10.1191H22.5ZM19.5 5V4.25H5.5V5V5.75H19.5V5ZM2.5 8H1.75V10.193H2.5H3.25V8H2.5ZM2.5 10.193V10.943C3.43961 10.943 3.92668 11.5073 3.92668 12.0009H4.67668H5.42668C5.42668 10.4108 3.97173 9.443 2.5 9.443V10.193ZM4.67668 12.0009H3.92668C3.92668 12.5295 3.39802 13.1318 2.5 13.1318V13.8818V14.6318C4.01333 14.6318 5.42668 13.556 5.42668 12.0009H4.67668ZM2.5 13.8818H1.75V16H2.5H3.25V13.8818H2.5ZM5.5 19V19.75H19.5V19V18.25H5.5V19ZM2.5 16H1.75C1.75 18.0711 3.42893 19.75 5.5 19.75V19V18.25C4.25736 18.25 3.25 17.2426 3.25 16H2.5ZM22.5 8H23.25C23.25 5.92893 21.5711 4.25 19.5 4.25V5V5.75C20.7426 5.75 21.75 6.75736 21.75 8H22.5ZM5.5 5V4.25C3.42893 4.25 1.75 5.92893 1.75 8H2.5H3.25C3.25 6.75736 4.25736 5.75 5.5 5.75V5ZM22.5 16H21.75C21.75 17.2426 20.7426 18.25 19.5 18.25V19V19.75C21.5711 19.75 23.25 18.0711 23.25 16H22.5Z" fill="white"/>
</svg>
