<svg width="24" height="25" viewBox="0 0 24 25" fill="none" xmlns="http://www.w3.org/2000/svg">
<path d="M17.8333 9.99984C17.8333 11.2082 17.475 12.3165 16.8583 13.2415C15.9583 14.5748 14.5333 15.5165 12.875 15.7582C12.5917 15.8082 12.3 15.8332 12 15.8332C11.7 15.8332 11.4083 15.8082 11.125 15.7582C9.46667 15.5165 8.04167 14.5748 7.14167 13.2415C6.525 12.3165 6.16667 11.2082 6.16667 9.99984C6.16667 6.77484 8.775 4.1665 12 4.1665C15.225 4.1665 17.8333 6.77484 17.8333 9.99984Z" stroke="white" stroke-width="1.04167" stroke-linecap="round" stroke-linejoin="round"/>
<path d="M19.7092 17.8918L18.3342 18.2168C18.0259 18.2918 17.7842 18.5252 17.7175 18.8335L17.4259 20.0585C17.2675 20.7252 16.4175 20.9252 15.9759 20.4002L12.0009 15.8335L8.02588 20.4085C7.58421 20.9335 6.73421 20.7335 6.57588 20.0668L6.28421 18.8418C6.20921 18.5335 5.96755 18.2918 5.66755 18.2252L4.29255 17.9002C3.65921 17.7502 3.43421 16.9585 3.89255 16.5002L7.14255 13.2502C8.04255 14.5835 9.46755 15.5252 11.1259 15.7668C11.4092 15.8168 11.7009 15.8418 12.0009 15.8418C12.3009 15.8418 12.5925 15.8168 12.8759 15.7668C14.5342 15.5252 15.9592 14.5835 16.8592 13.2502L20.1092 16.5002C20.5675 16.9502 20.3425 17.7418 19.7092 17.8918Z" stroke="white" stroke-width="1.04167" stroke-linecap="round" stroke-linejoin="round"/>
<path d="M12.4849 7.48317L12.9766 8.4665C13.0433 8.59983 13.2183 8.73317 13.3766 8.75817L14.2683 8.90816C14.8349 8.99983 14.9683 9.4165 14.5599 9.82484L13.8683 10.5165C13.7516 10.6332 13.6849 10.8582 13.7266 11.0248L13.9266 11.8832C14.0849 12.5582 13.7266 12.8248 13.1266 12.4665L12.2933 11.9748C12.1433 11.8832 11.8933 11.8832 11.7433 11.9748L10.9099 12.4665C10.3099 12.8165 9.9516 12.5582 10.1099 11.8832L10.3099 11.0248C10.3433 10.8665 10.2849 10.6332 10.1683 10.5165L9.47661 9.82484C9.06827 9.4165 9.2016 9.00816 9.76827 8.90816L10.6599 8.75817C10.8099 8.73317 10.9849 8.59983 11.0516 8.4665L11.5433 7.48317C11.7849 6.94984 12.2183 6.94984 12.4849 7.48317Z" stroke="white" stroke-width="1.04167" stroke-linecap="round" stroke-linejoin="round"/>
</svg>
