<svg width="20" height="20" viewBox="0 0 20 20" fill="none" xmlns="http://www.w3.org/2000/svg">
<path d="M10 2V1M16.89 13H18.89M18.89 10.125H19M15.89 4H16M3.89 4H4M3.89 16H4M13 16H13.11M7 10H1M15.25 10.125H10V6.125M10 19V13H13M3 7H5C6.10457 7 7 6.10457 7 5V3C7 1.89543 6.10457 1 5 1H3C1.89543 1 1 1.89543 1 3V5C1 6.10457 1.89543 7 3 7ZM3 19H5C6.10457 19 7 18.1046 7 17V15C7 13.8954 6.10457 13 5 13H3C1.89543 13 1 13.8954 1 15V17C1 18.1046 1.89543 19 3 19ZM15 7H17C18.1046 7 19 6.10457 19 5V3C19 1.89543 18.1046 1 17 1H15C13.8954 1 13 1.89543 13 3V5C13 6.10457 13.8954 7 15 7ZM16.89 19H18C18.5523 19 19 18.5523 19 18V17C19 16.4477 18.5523 16 18 16H16.89C16.3377 16 15.89 16.4477 15.89 17V18C15.89 18.5523 16.3377 19 16.89 19Z" stroke="white" stroke-width="1.5" stroke-linecap="round" stroke-linejoin="round"/>
</svg>
