<svg width="19" height="18" viewBox="0 0 19 18" fill="none" xmlns="http://www.w3.org/2000/svg">
<path d="M18.1458 11.3333C18.1458 11.0687 17.9313 10.8542 17.6667 10.8542C17.402 10.8542 17.1875 11.0687 17.1875 11.3333H18.1458ZM11.8333 17.1667L11.4225 16.9201C11.3336 17.0682 11.3313 17.2525 11.4164 17.4028C11.5014 17.553 11.6607 17.6458 11.8333 17.6458V17.1667ZM13.1192 15.9549C13.2554 15.7279 13.1818 15.4336 12.9549 15.2975C12.7279 15.1613 12.4336 15.2349 12.2974 15.4618L13.1192 15.9549ZM0.520833 6.33333C0.520833 6.59797 0.735364 6.8125 1 6.8125C1.26464 6.8125 1.47917 6.59797 1.47917 6.33333H0.520833ZM6.83333 0.5L7.24422 0.746527C7.33303 0.598498 7.33536 0.414136 7.2503 0.263914C7.16525 0.113692 7.00596 0.0208333 6.83333 0.0208333V0.5ZM5.54746 1.71181C5.41131 1.93873 5.48489 2.23306 5.71182 2.36922C5.93874 2.50537 6.23307 2.43178 6.36923 2.20486L5.54746 1.71181ZM16.2463 8.76343L16.3142 8.28909V8.28909L16.2463 8.76343ZM12.837 8.76343L12.7692 8.28909V8.28909L12.837 8.76343ZM12.0198 6.515L12.1812 6.96616L12.0198 6.515ZM17.0635 6.515L16.9021 6.96616L17.0635 6.515ZM12.411 8.8244L12.4788 9.29873H12.4788L12.411 8.8244ZM16.6724 8.8244L16.6045 9.29873H16.6045L16.6724 8.8244ZM5.82963 16.6801L5.89751 16.2058H5.89751L5.82963 16.6801ZM2.42037 16.6801L2.35249 16.2058H2.35249L2.42037 16.6801ZM1.60317 14.4317L1.76457 14.8828L1.60317 14.4317ZM6.64683 14.4317L6.48543 14.8828L6.64683 14.4317ZM1.99429 16.7411L2.06216 17.2154L2.06217 17.2154L1.99429 16.7411ZM6.25571 16.7411L6.18783 17.2154L6.18783 17.2154L6.25571 16.7411ZM17.6667 11.3333H17.1875C17.1875 14.2937 14.7937 16.6875 11.8333 16.6875V17.1667V17.6458C15.323 17.6458 18.1458 14.823 18.1458 11.3333H17.6667ZM11.8333 17.1667L12.2442 17.4132L13.1192 15.9549L12.7083 15.7083L12.2974 15.4618L11.4225 16.9201L11.8333 17.1667ZM1 6.33333H1.47917C1.47917 3.37297 3.87297 0.979167 6.83333 0.979167V0.5V0.0208333C3.3437 0.0208333 0.520833 2.8437 0.520833 6.33333H1ZM6.83333 0.5L6.42245 0.253473L5.54746 1.71181L5.95834 1.95833L6.36923 2.20486L7.24422 0.746527L6.83333 0.5ZM12.756 2.28872H12.2768C12.2768 3.54048 13.29 4.55661 14.5417 4.55661V4.07744V3.59828C13.8208 3.59828 13.2351 3.01273 13.2351 2.28872H12.756ZM14.5417 4.07744V4.55661C15.7933 4.55661 16.8065 3.54048 16.8065 2.28872H16.3274H15.8482C15.8482 3.01273 15.2625 3.59828 14.5417 3.59828V4.07744ZM16.3274 2.28872H16.8065C16.8065 1.03696 15.7933 0.0208333 14.5417 0.0208333V0.5V0.979167C15.2625 0.979167 15.8482 1.56471 15.8482 2.28872H16.3274ZM14.5417 0.5V0.0208333C13.29 0.0208333 12.2768 1.03696 12.2768 2.28872H12.756H13.2351C13.2351 1.56471 13.8208 0.979167 14.5417 0.979167V0.5ZM17.6667 7.37233H17.1875V7.9606H17.6667H18.1458V7.37233H17.6667ZM11.4167 7.9606H11.8958V7.37233H11.4167H10.9375V7.9606H11.4167ZM16.6724 8.8244L16.7403 8.35006L16.3142 8.28909L16.2463 8.76343L16.1784 9.23776L16.6045 9.29873L16.6724 8.8244ZM12.837 8.76343L12.7692 8.28909L12.3431 8.35006L12.411 8.8244L12.4788 9.29873L12.9049 9.23776L12.837 8.76343ZM16.2463 8.76343L16.3142 8.28909C15.1385 8.12085 13.9449 8.12085 12.7692 8.28909L12.837 8.76343L12.9049 9.23776C13.9906 9.08241 15.0928 9.08241 16.1784 9.23776L16.2463 8.76343ZM12.0198 6.515L12.1812 6.96616C13.7077 6.4201 15.3757 6.4201 16.9021 6.96616L17.0635 6.515L17.2249 6.06383C15.4898 5.4431 13.5936 5.4431 11.8584 6.06383L12.0198 6.515ZM11.4167 7.9606H10.9375C10.9375 8.78232 11.6644 9.41527 12.4788 9.29873L12.411 8.8244L12.3431 8.35006C12.1079 8.38372 11.8958 8.20089 11.8958 7.9606H11.4167ZM17.6667 7.9606H17.1875C17.1875 8.20089 16.9754 8.38372 16.7403 8.35006L16.6724 8.8244L16.6045 9.29873C17.4189 9.41527 18.1458 8.78232 18.1458 7.9606H17.6667ZM17.6667 7.37233H18.1458C18.1458 6.7856 17.7776 6.26155 17.2249 6.06383L17.0635 6.515L16.9021 6.96616C17.0728 7.02725 17.1875 7.1896 17.1875 7.37233H17.6667ZM11.4167 7.37233H11.8958C11.8958 7.1896 12.0105 7.02725 12.1812 6.96616L12.0198 6.515L11.8584 6.06383C11.3058 6.26155 10.9375 6.7856 10.9375 7.37233H11.4167ZM2.33929 10.2054H1.86012C1.86012 11.4571 2.87338 12.4733 4.125 12.4733V11.9941V11.5149C3.40417 11.5149 2.81845 10.9294 2.81845 10.2054H2.33929ZM4.125 11.9941V12.4733C5.37662 12.4733 6.38988 11.4571 6.38988 10.2054H5.91071H5.43155C5.43155 10.9294 4.84583 11.5149 4.125 11.5149V11.9941ZM5.91071 10.2054H6.38988C6.38988 8.95363 5.37662 7.9375 4.125 7.9375V8.41667V8.89583C4.84583 8.89583 5.43155 9.48138 5.43155 10.2054H5.91071ZM4.125 8.41667V7.9375C2.87338 7.9375 1.86012 8.95363 1.86012 10.2054H2.33929H2.81845C2.81845 9.48138 3.40417 8.89583 4.125 8.89583V8.41667ZM7.25 15.289H6.77083V15.8773H7.25H7.72917V15.289H7.25ZM1 15.8773H1.47917V15.289H1H0.520833V15.8773H1ZM6.25571 16.7411L6.32359 16.2667L5.89751 16.2058L5.82963 16.6801L5.76175 17.1544L6.18783 17.2154L6.25571 16.7411ZM2.42037 16.6801L2.35249 16.2058L1.92641 16.2667L1.99429 16.7411L2.06217 17.2154L2.48824 17.1544L2.42037 16.6801ZM5.82963 16.6801L5.89751 16.2058C4.7218 16.0375 3.52819 16.0375 2.35249 16.2058L2.42037 16.6801L2.48824 17.1544C3.5739 16.9991 4.67609 16.9991 5.76175 17.1544L5.82963 16.6801ZM1.60317 14.4317L1.76457 14.8828C3.29099 14.3368 4.95901 14.3368 6.48543 14.8828L6.64683 14.4317L6.80824 13.9805C5.07309 13.3598 3.17691 13.3598 1.44176 13.9805L1.60317 14.4317ZM1 15.8773H0.520833C0.520833 16.699 1.24777 17.3319 2.06216 17.2154L1.99429 16.7411L1.92641 16.2667C1.69126 16.3004 1.47917 16.1176 1.47917 15.8773H1ZM7.25 15.8773H6.77083C6.77083 16.1176 6.55874 16.3004 6.32359 16.2667L6.25571 16.7411L6.18783 17.2154C7.00223 17.3319 7.72917 16.699 7.72917 15.8773H7.25ZM7.25 15.289H7.72917C7.72917 14.7023 7.36092 14.1782 6.80824 13.9805L6.64683 14.4317L6.48543 14.8828C6.65618 14.9439 6.77083 15.1063 6.77083 15.289H7.25ZM1 15.289H1.47917C1.47917 15.1063 1.59382 14.9439 1.76457 14.8828L1.60317 14.4317L1.44176 13.9805C0.889085 14.1782 0.520833 14.7023 0.520833 15.289H1Z" fill="white"/>
</svg>
