<svg width="24" height="24" viewBox="0 0 24 24" fill="none" xmlns="http://www.w3.org/2000/svg">
<g clip-path="url(#clip0_12763_1954)">
<path d="M12 5.4V23M12 5.4H8.11072C7.53766 5.4 6.98808 5.16822 6.58286 4.75564C6.17765 4.34306 5.95001 3.78348 5.95001 3.2C5.95001 2.61652 6.17765 2.05695 6.58286 1.64437C6.98808 1.23179 7.53766 1 8.11072 1C11.1357 1 12 5.4 12 5.4ZM12 5.4H15.8893C16.4623 5.4 17.0119 5.16822 17.4171 4.75564C17.8224 4.34306 18.05 3.78348 18.05 3.2C18.05 2.61652 17.8224 2.05695 17.4171 1.64437C17.0119 1.23179 16.4623 1 15.8893 1C12.8643 1 12 5.4 12 5.4ZM20.8 10.9V19.48V19.48C20.8 21.424 19.224 23 17.28 23H6.72001C4.77597 23 3.20001 21.424 3.20001 19.48V19.48V10.9M2.76001 5.4L21.24 5.4V5.4C22.212 5.4 23 6.18798 23 7.15999V9.14001C23 10.112 22.212 10.9 21.24 10.9V10.9L2.76001 10.9V10.9C1.78798 10.9 1 10.112 1 9.13999V7.16001C1 6.18798 1.78798 5.4 2.76001 5.4V5.4Z" stroke="white" stroke-width="1.375" stroke-linecap="round" stroke-linejoin="round"/>
</g>
<defs>
<clipPath id="clip0_12763_1954">
<rect width="24" height="24" fill="white"/>
</clipPath>
</defs>
</svg>
