<svg width="24" height="24" viewBox="0 0 24 24" fill="none" xmlns="http://www.w3.org/2000/svg">
<path d="M3.81812 12V18C3.81812 20.2091 5.60897 22 7.81811 22H16.1818C18.3909 22 20.1818 20.2091 20.1818 18V12" stroke="white" stroke-width="1.5" stroke-linecap="round"/>
<path d="M14.5227 21.5V17.5C14.5227 16.9477 14.075 16.5 13.5227 16.5H10.5C9.94772 16.5 9.5 16.9477 9.5 17.5V21.5" stroke="white" stroke-width="1.5"/>
<path d="M2 4C2 2.89543 2.89543 2 4 2H7V9.5C7 10.8807 5.88071 12 4.5 12V12C3.11929 12 2 10.8807 2 9.5V4Z" stroke="white" stroke-width="1.5"/>
<path d="M7 2H12V9.5C12 10.8807 10.8807 12 9.5 12V12C8.11929 12 7 10.8807 7 9.5V2Z" stroke="white" stroke-width="1.5"/>
<path d="M12 2H17V9.5C17 10.8807 15.8807 12 14.5 12V12C13.1193 12 12 10.8807 12 9.5V2Z" stroke="white" stroke-width="1.5"/>
<path d="M17 2H20C21.1046 2 22 2.89543 22 4V9.5C22 10.8807 20.8807 12 19.5 12V12C18.1193 12 17 10.8807 17 9.5V2Z" stroke="white" stroke-width="1.5"/>
<path d="M4.56812 12C4.56812 11.5858 4.23233 11.25 3.81812 11.25C3.4039 11.25 3.06812 11.5858 3.06812 12H4.56812ZM20.1818 12H19.4318V18H20.1818H20.9318V12H20.1818ZM16.1818 22V21.25H7.81811V22V22.75H16.1818V22ZM3.81812 18H4.56812V12H3.81812H3.06812V18H3.81812ZM7.81811 22V21.25C6.02319 21.25 4.56812 19.7949 4.56812 18H3.81812H3.06812C3.06812 20.6234 5.19476 22.75 7.81811 22.75V22ZM20.1818 18H19.4318C19.4318 19.7949 17.9767 21.25 16.1818 21.25V22V22.75C18.8051 22.75 20.9318 20.6234 20.9318 18H20.1818ZM10.5 16.5V17.25H13.5227V16.5V15.75H10.5V16.5ZM14.5227 17.5H13.7727V21.5H14.5227H15.2727V17.5H14.5227ZM9.5 21.5H10.25V17.5H9.5H8.75V21.5H9.5ZM13.5227 16.5V17.25C13.6608 17.25 13.7727 17.3619 13.7727 17.5H14.5227H15.2727C15.2727 16.5335 14.4892 15.75 13.5227 15.75V16.5ZM10.5 16.5V15.75C9.5335 15.75 8.75 16.5335 8.75 17.5H9.5H10.25C10.25 17.3619 10.3619 17.25 10.5 17.25V16.5ZM4 2V2.75H7V2V1.25H4V2ZM7 2H6.25V9.5H7H7.75V2H7ZM2 9.5H2.75V4H2H1.25V9.5H2ZM4.5 12V11.25C3.5335 11.25 2.75 10.4665 2.75 9.5H2H1.25C1.25 11.2949 2.70507 12.75 4.5 12.75V12ZM7 9.5H6.25C6.25 10.4665 5.4665 11.25 4.5 11.25V12V12.75C6.29493 12.75 7.75 11.2949 7.75 9.5H7ZM4 2V1.25C2.48122 1.25 1.25 2.48122 1.25 4H2H2.75C2.75 3.30964 3.30964 2.75 4 2.75V2ZM7 2V2.75H12V2V1.25H7V2ZM12 2H11.25V9.5H12H12.75V2H12ZM9.5 12V11.25C8.5335 11.25 7.75 10.4665 7.75 9.5H7H6.25C6.25 11.2949 7.70507 12.75 9.5 12.75V12ZM12 9.5H11.25C11.25 10.4665 10.4665 11.25 9.5 11.25V12V12.75C11.2949 12.75 12.75 11.2949 12.75 9.5H12ZM12 2V2.75H17V2V1.25H12V2ZM17 2H16.25V9.5H17H17.75V2H17ZM14.5 12V11.25C13.5335 11.25 12.75 10.4665 12.75 9.5H12H11.25C11.25 11.2949 12.7051 12.75 14.5 12.75V12ZM17 9.5H16.25C16.25 10.4665 15.4665 11.25 14.5 11.25V12V12.75C16.2949 12.75 17.75 11.2949 17.75 9.5H17ZM17 2V2.75H20V2V1.25H17V2ZM22 4H21.25V9.5H22H22.75V4H22ZM19.5 12V11.25C18.5335 11.25 17.75 10.4665 17.75 9.5H17H16.25C16.25 11.2949 17.7051 12.75 19.5 12.75V12ZM22 9.5H21.25C21.25 10.4665 20.4665 11.25 19.5 11.25V12V12.75C21.2949 12.75 22.75 11.2949 22.75 9.5H22ZM20 2V2.75C20.6904 2.75 21.25 3.30964 21.25 4H22H22.75C22.75 2.48122 21.5188 1.25 20 1.25V2Z" fill="white"/>
</svg>
